# xmcd
#
# Track frame offsets: 
#        150
#        16987
#        31531
#        47682
#        60151
#        75968
#        92892
#        108096
#        127225
#        147107
#        168018
#        188632
#        210644
#        226223
#
# Disc length: 3184 seconds
#
# Revision: 0
# Processed by: cddbd v1.5.2PL0 Copyright (c) Steve Scherf et al.
# Submitted via: ExactAudioCopy v1.0b3
#
DISCID=9e0c6e0e
DTITLE=The Most Southern Blues Band - The Gathering
DYEAR=2013
DGENRE=Blues
TTITLE0=Life Is a Gamble
TTITLE1=Snakebite
TTITLE2=Route 66
TTITLE3=No Llores
TTITLE4=Semper Fi (There for You)
TTITLE5=Outlaws vs. Inlaws
TTITLE6=And That's How I Met My Wife
TTITLE7=Let Her Go
TTITLE8=Before You
TTITLE9=Penn Gwen Funk
TTITLE10=Georgia On My Mind
TTITLE11=Never Make a Move Too Soon
TTITLE12=Wanted
TTITLE13=Day Tripper
EXTD=
EXTT0=
EXTT1=
EXTT2=
EXTT3=
EXTT4=
EXTT5=
EXTT6=
EXTT7=
EXTT8=
EXTT9=
EXTT10=
EXTT11=
EXTT12=
EXTT13=
PLAYORDER=
